# xmcd CD database file
#
# Track frame offsets:
#	150
#	14493
#	28064
#	45674
#	73193
#	86529
#	119087
#	150895
#	170474
#	200941
#	227954
#	258407
#	281941
#	304165
#	333412
#
# Disc length: 4734 seconds
#
# Revision: 1
# Processed by: cddbd v1.5.2PL0 Copyright (c) Steve Scherf et al.
# Submitted via: CDex 1.70beta2
#
DISCID=de127c0f
DTITLE=Various Artist - The Best Of Blue Note-3
DYEAR=2013
DGENRE=Blues
TTITLE0=Thelonious Monk - Round Midnight
TTITLE1=Miles Davis - Boblicity
TTITLE2=Clifford Brown - Brownie Eyes
TTITLE3=Sonny Rollins - Poor Butterfly
TTITLE4=Bud Powell - Over the Rainbow
TTITLE5=John Coltrane - Locomotion
TTITLE6=Cliff Jordan - Anthropology
TTITLE7=Horace Silver - How Long Has This Been Going On?
TTITLE8=Kenny Burrell - The Man I Love
TTITLE9=Art Blakey and The Jazz Messengers - It Is Only A Paper Moon
TTITLE10=Bennie Green - This Love Of Mine
TTITLE11=Lou Donaldson - Mack The Knife
TTITLE12=Jimmy Smith - Makin Whoopee
TTITLE13=Sonny Red - You Are Sensational
TTITLE14=Donald Byrd - Amen
EXTD=YEAR: 2013
EXTT0=
EXTT1=
EXTT2=
EXTT3=
EXTT4=
EXTT5=
EXTT6=
EXTT7=
EXTT8=
EXTT9=
EXTT10=
EXTT11=
EXTT12=
EXTT13=
EXTT14=
PLAYORDER=
